HIERARCHY
ROOT Hips
{
	OFFSET 0.000000 0.000000 0.000000
	CHANNELS 6 Xposition Yposition Zposition Zrotation Yrotation Xrotation 
	JOINT LowerBack
	{
		OFFSET 0.000000 0.000000 0.000000
		CHANNELS 3 Zrotation Yrotation Xrotation
		JOINT Spine
		{
			OFFSET 0.028270 2.035590 -0.193380
			CHANNELS 3 Zrotation Yrotation Xrotation
			JOINT Spine1
			{
				OFFSET 0.056720 2.048850 -0.042750
				CHANNELS 3 Zrotation Yrotation Xrotation
				JOINT Neck
				{
					OFFSET 0.000000 0.000000 0.000000
					CHANNELS 3 Zrotation Yrotation Xrotation
					JOINT Neck1
					{
						OFFSET -0.054170 1.746240 0.172020
						CHANNELS 3 Zrotation Yrotation Xrotation
						JOINT Head
						{
							OFFSET 0.104070 1.761360 -0.123970
							CHANNELS 3 Zrotation Yrotation Xrotation
							End Site
							{
								OFFSET 0.000000 0.000000 0.000000
							}
						}
					}
				}
				JOINT LeftShoulder
				{
					OFFSET 0.000000 0.000000 0.000000
					CHANNELS 3 Zrotation Yrotation Xrotation
					JOINT LeftArm
					{
						OFFSET 3.362410 1.200890 -0.311210
						CHANNELS 3 Zrotation Yrotation Xrotation
						JOINT LeftForeArm
						{
							OFFSET 4.983000 -0.000000 -0.000000
							CHANNELS 3 Zrotation Yrotation Xrotation
							JOINT LeftHand
							{
								OFFSET 3.483560 -0.000000 -0.000000
								CHANNELS 3 Zrotation Yrotation Xrotation
								JOINT LeftFingerBase
								{
									OFFSET 0.000000 0.000000 0.000000
									CHANNELS 3 Zrotation Yrotation Xrotation
									JOINT LeftHandIndex1
									{
										OFFSET 0.715260 -0.000000 -0.000000
										CHANNELS 3 Zrotation Yrotation Xrotation
										End Site
										{
											OFFSET 0.000000 0.000000 0.000000
										}
									}
								}
								JOINT LThumb
								{
									OFFSET 0.000000 0.000000 0.000000
									CHANNELS 3 Zrotation Yrotation Xrotation
									End Site
									{
										OFFSET 0.000000 0.000000 0.000000
									}
								}
							}
						}
					}
				}
				JOINT RightShoulder
				{
					OFFSET 0.000000 0.000000 0.000000
					CHANNELS 3 Zrotation Yrotation Xrotation
					JOINT RightArm
					{
						OFFSET -3.136600 1.374050 -0.404650
						CHANNELS 3 Zrotation Yrotation Xrotation
						JOINT RightForeArm
						{
							OFFSET -5.241900 -0.000000 -0.000000
							CHANNELS 3 Zrotation Yrotation Xrotation
							JOINT RightHand
							{
								OFFSET -3.444170 -0.000000 -0.000000
								CHANNELS 3 Zrotation Yrotation Xrotation
								JOINT RightFingerBase
								{
									OFFSET 0.000000 0.000000 0.000000
									CHANNELS 3 Zrotation Yrotation Xrotation
									JOINT RightHandIndex1
									{
										OFFSET -0.622530 -0.000000 -0.000000
										CHANNELS 3 Zrotation Yrotation Xrotation
										End Site
										{
											OFFSET 0.000000 0.000000 0.000000
										}
									}
								}
								JOINT RThumb
								{
									OFFSET 0.000000 0.000000 0.000000
									CHANNELS 3 Zrotation Yrotation Xrotation
									End Site
									{
										OFFSET 0.000000 0.000000 0.000000
									}
								}
							}
						}
					}
				}
			}
		}
	}
}
}
MOTION
Frames: 6
Frame Time: 0.008333
3.469034 17.202881 0.881534 -97.277971 -88.766247 109.005909 1.580461 -3.811788 -4.273630 0.399768 -3.991278 -3.579578 -4.685901 -3.902152 -0.592457 7.730792 -9.937531 -2.565563 -4.256711 -0.374721 1.416324 0.000000 0.000000 0.000000 12.893929 4.294996 -1.632225 -91.451728 -5.640514 18.135511 179.825629 -46.367553 179.938977 2.876293 -8.772846 -0.234959 0.104595 1.201658 -0.000000 0.000000 0.000000 0.000000 0.000000 0.000000 0.000000 2.460103 -7.659567 -3.905184 85.142919 24.141222 31.590432 -179.936390 61.385159 179.857718 -12.618100 13.714782 -1.682115 0.317563 -1.070933 -0.000000 0.000000 0.000000 0.000000 0.000000 0.000000 0.000000 
3.473470 17.203327 0.881877 -60.973990 -89.587361 72.706672 0.760755 -3.872747 -4.319111 0.294162 -3.974466 -3.603549 -4.612110 -3.903729 -0.696852 7.668449 -9.623180 -2.356162 -4.256986 -0.376729 1.472453 0.000000 0.000000 0.000000 12.893639 4.193251 -1.615015 -91.409527 -5.754949 18.271592 179.810262 -46.469501 179.938745 2.846807 -8.757239 -0.231915 0.108128 1.202155 -0.000000 0.000000 0.000000 0.000000 0.000000 0.000000 0.000000 2.474555 -7.370852 -3.934289 84.817749 24.687349 31.107112 -179.906115 61.647567 179.854814 -12.872269 13.560262 -1.697006 0.321712 -1.063562 -0.000000 0.000000 0.000000 0.000000 0.000000 0.000000 0.000000 
3.477684 17.203420 0.884551 160.242442 -89.885050 -148.483535 0.362576 -3.693605 -4.386044 0.190615 -3.751639 -3.646378 -4.537763 -3.689187 -0.791529 7.575134 -9.272477 -2.158261 -4.251751 -0.377709 1.529711 0.000000 0.000000 0.000000 12.858613 4.239235 -1.588682 -91.412610 -5.893856 18.447368 179.771497 -46.595117 179.938455 2.813468 -8.744747 -0.228425 0.113215 1.202332 0.000000 0.000000 0.000000 0.000000 0.000000 0.000000 0.000000 2.451243 -6.927838 -3.983712 84.423998 25.344456 30.569184 -179.896456 61.940450 179.852416 -13.117034 13.408503 -1.710207 0.326539 -1.055544 -0.000000 0.000000 0.000000 0.000000 0.000000 0.000000 0.000000 
3.482072 17.203996 0.884508 -16.724331 -89.946174 28.485477 0.373626 -3.581235 -4.442027 0.181220 -3.638336 -3.684834 -4.483640 -3.575814 -0.920039 7.487710 -8.893115 -1.905585 -4.250079 -0.379612 1.598114 0.000000 0.000000 0.000000 12.818852 4.179801 -1.561880 -91.369475 -6.036922 18.613322 179.755015 -46.732273 179.938467 2.775638 -8.730840 -0.224519 0.116977 1.203130 0.000000 0.000000 0.000000 0.000000 0.000000 0.000000 0.000000 2.454443 -6.511711 -4.023664 83.975813 26.076447 29.982155 -179.869822 62.298646 179.849519 -13.352066 13.240440 -1.719181 0.328460 -1.046615 -0.000000 0.000000 0.000000 0.000000 0.000000 0.000000 0.000000 
3.486607 17.204691 0.884047 -14.409987 -89.743806 26.165918 0.374261 -3.468218 -4.501864 0.172408 -3.523246 -3.726329 -4.417555 -3.460891 -1.061363 7.389160 -8.497088 -1.629284 -4.248297 -0.381740 1.672893 0.000000 0.000000 0.000000 12.764756 4.082090 -1.535489 -91.312949 -6.184862 18.780137 179.734740 -46.875195 179.938417 2.738653 -8.714458 -0.220725 0.120990 1.203803 0.000000 0.000000 0.000000 0.000000 0.000000 0.000000 0.000000 2.472255 -6.080245 -4.059460 83.460764 26.923426 29.349372 -179.848031 62.734898 179.846909 -13.562225 13.041028 -1.720076 0.329045 -1.036145 -0.000000 0.000000 0.000000 0.000000 0.000000 0.000000 0.000000 
3.491301 17.205385 0.883269 -12.659832 -89.515843 24.403629 0.365972 -3.349120 -4.568693 0.163702 -3.401120 -3.770358 -4.341681 -3.338932 -1.209315 7.277870 -8.071809 -1.335998 -4.242982 -0.383775 1.752176 0.000000 0.000000 0.000000 12.688858 3.990955 -1.511906 -91.240313 -6.379738 18.975001 179.719451 -47.055945 179.938312 2.710215 -8.695791 -0.217634 0.124154 1.204563 0.000000 0.000000 0.000000 0.000000 0.000000 0.000000 0.000000 2.491533 -5.618610 -4.095018 82.879837 27.866292 28.645116 -179.825106 63.252950 179.844699 -13.724823 12.810848 -1.709899 0.326904 -1.023990 -0.000000 0.000000 0.000000 0.000000 0.000000 0.000000 0.000000 
